<mxfile host="app.diagrams.net" agent="Mozilla/5.0 (X11; Linux x86_64; rv:132.0) Gecko/20100101 Firefox/132.0" version="24.9.0">
  <diagram name="Page-1" id="Pl5kkA8qLAsJ_QBRMam7">
    <mxGraphModel dx="1107" dy="1691" grid="1" gridSize="10" guides="1" tooltips="1" connect="1" arrows="1" fold="1" page="1" pageScale="1" pageWidth="850" pageHeight="1100" math="0" shadow="0">
      <root>
        <mxCell id="0" />
        <mxCell id="1" parent="0" />
        <mxCell id="nX1LnQ5ez04kvzL2XjsZ-1" value="Job" style="swimlane;fontStyle=0;childLayout=stackLayout;horizontal=1;startSize=26;fillColor=none;horizontalStack=0;resizeParent=1;resizeParentMax=0;resizeLast=0;collapsible=1;marginBottom=0;whiteSpace=wrap;html=1;" vertex="1" parent="1">
          <mxGeometry x="320" y="115" width="120" height="180" as="geometry" />
        </mxCell>
        <mxCell id="nX1LnQ5ez04kvzL2XjsZ-2" value="&lt;div&gt;+ Id&lt;/div&gt;&lt;div&gt;+ Title&lt;/div&gt;&lt;div&gt;+ CompanyName&lt;/div&gt;&lt;div&gt;+ PostedDate&lt;/div&gt;&lt;div&gt;+ ExpirationDate&lt;/div&gt;&lt;div&gt;+ Url&lt;/div&gt;&lt;div&gt;+ Decription&lt;/div&gt;&lt;div&gt;+ ContactInfo&lt;/div&gt;&lt;div&gt;+ ScrapedDate&lt;/div&gt;&lt;div&gt;+ JobType&lt;br&gt;&lt;/div&gt;" style="text;strokeColor=none;fillColor=none;align=left;verticalAlign=top;spacingLeft=4;spacingRight=4;overflow=hidden;rotatable=0;points=[[0,0.5],[1,0.5]];portConstraint=eastwest;whiteSpace=wrap;html=1;" vertex="1" parent="nX1LnQ5ez04kvzL2XjsZ-1">
          <mxGeometry y="26" width="120" height="154" as="geometry" />
        </mxCell>
        <mxCell id="nX1LnQ5ez04kvzL2XjsZ-32" style="edgeStyle=orthogonalEdgeStyle;rounded=0;orthogonalLoop=1;jettySize=auto;html=1;entryX=0.5;entryY=1;entryDx=0;entryDy=0;endArrow=none;endFill=0;" edge="1" parent="1" source="nX1LnQ5ez04kvzL2XjsZ-5" target="nX1LnQ5ez04kvzL2XjsZ-28">
          <mxGeometry relative="1" as="geometry" />
        </mxCell>
        <mxCell id="nX1LnQ5ez04kvzL2XjsZ-33" value="0..*" style="edgeLabel;html=1;align=center;verticalAlign=middle;resizable=0;points=[];" vertex="1" connectable="0" parent="nX1LnQ5ez04kvzL2XjsZ-32">
          <mxGeometry x="0.7333" y="-2" relative="1" as="geometry">
            <mxPoint as="offset" />
          </mxGeometry>
        </mxCell>
        <mxCell id="nX1LnQ5ez04kvzL2XjsZ-34" value="1" style="edgeLabel;html=1;align=center;verticalAlign=middle;resizable=0;points=[];" vertex="1" connectable="0" parent="nX1LnQ5ez04kvzL2XjsZ-32">
          <mxGeometry x="-0.7185" y="2" relative="1" as="geometry">
            <mxPoint as="offset" />
          </mxGeometry>
        </mxCell>
        <mxCell id="nX1LnQ5ez04kvzL2XjsZ-5" value="Website" style="swimlane;fontStyle=0;childLayout=stackLayout;horizontal=1;startSize=26;fillColor=none;horizontalStack=0;resizeParent=1;resizeParentMax=0;resizeLast=0;collapsible=1;marginBottom=0;whiteSpace=wrap;html=1;" vertex="1" parent="1">
          <mxGeometry x="610" y="155" width="120" height="100" as="geometry" />
        </mxCell>
        <mxCell id="nX1LnQ5ez04kvzL2XjsZ-6" value="&lt;div&gt;+ Id&lt;/div&gt;&lt;div&gt;+ Url&lt;/div&gt;&lt;div&gt;+ ShortName&lt;/div&gt;&lt;div&gt;+ LastScraped&lt;br&gt;&lt;/div&gt;" style="text;strokeColor=none;fillColor=none;align=left;verticalAlign=top;spacingLeft=4;spacingRight=4;overflow=hidden;rotatable=0;points=[[0,0.5],[1,0.5]];portConstraint=eastwest;whiteSpace=wrap;html=1;" vertex="1" parent="nX1LnQ5ez04kvzL2XjsZ-5">
          <mxGeometry y="26" width="120" height="74" as="geometry" />
        </mxCell>
        <mxCell id="nX1LnQ5ez04kvzL2XjsZ-7" style="edgeStyle=orthogonalEdgeStyle;rounded=0;orthogonalLoop=1;jettySize=auto;html=1;entryX=0;entryY=0.5;entryDx=0;entryDy=0;endArrow=none;endFill=0;" edge="1" parent="1" source="nX1LnQ5ez04kvzL2XjsZ-2" target="nX1LnQ5ez04kvzL2XjsZ-6">
          <mxGeometry relative="1" as="geometry" />
        </mxCell>
        <mxCell id="nX1LnQ5ez04kvzL2XjsZ-8" value="0..*" style="edgeLabel;html=1;align=center;verticalAlign=middle;resizable=0;points=[];" vertex="1" connectable="0" parent="nX1LnQ5ez04kvzL2XjsZ-7">
          <mxGeometry x="-0.8471" y="-4" relative="1" as="geometry">
            <mxPoint y="-3" as="offset" />
          </mxGeometry>
        </mxCell>
        <mxCell id="nX1LnQ5ez04kvzL2XjsZ-9" value="1..*" style="edgeLabel;html=1;align=center;verticalAlign=middle;resizable=0;points=[];" vertex="1" connectable="0" parent="nX1LnQ5ez04kvzL2XjsZ-7">
          <mxGeometry x="0.8118" y="-2" relative="1" as="geometry">
            <mxPoint y="-3" as="offset" />
          </mxGeometry>
        </mxCell>
        <mxCell id="nX1LnQ5ez04kvzL2XjsZ-13" style="edgeStyle=orthogonalEdgeStyle;rounded=0;orthogonalLoop=1;jettySize=auto;html=1;entryX=0.5;entryY=1;entryDx=0;entryDy=0;endArrow=none;endFill=0;" edge="1" parent="1" source="nX1LnQ5ez04kvzL2XjsZ-11" target="nX1LnQ5ez04kvzL2XjsZ-5">
          <mxGeometry relative="1" as="geometry" />
        </mxCell>
        <mxCell id="nX1LnQ5ez04kvzL2XjsZ-14" value="1" style="edgeLabel;html=1;align=center;verticalAlign=middle;resizable=0;points=[];" vertex="1" connectable="0" parent="nX1LnQ5ez04kvzL2XjsZ-13">
          <mxGeometry x="-0.6752" relative="1" as="geometry">
            <mxPoint as="offset" />
          </mxGeometry>
        </mxCell>
        <mxCell id="nX1LnQ5ez04kvzL2XjsZ-15" value="1..*" style="edgeLabel;html=1;align=center;verticalAlign=middle;resizable=0;points=[];" vertex="1" connectable="0" parent="nX1LnQ5ez04kvzL2XjsZ-13">
          <mxGeometry x="0.7265" y="-2" relative="1" as="geometry">
            <mxPoint as="offset" />
          </mxGeometry>
        </mxCell>
        <mxCell id="nX1LnQ5ez04kvzL2XjsZ-11" value="ScrapingPolicy" style="swimlane;fontStyle=0;childLayout=stackLayout;horizontal=1;startSize=26;fillColor=none;horizontalStack=0;resizeParent=1;resizeParentMax=0;resizeLast=0;collapsible=1;marginBottom=0;whiteSpace=wrap;html=1;" vertex="1" parent="1">
          <mxGeometry x="580" y="372" width="180" height="110" as="geometry" />
        </mxCell>
        <mxCell id="nX1LnQ5ez04kvzL2XjsZ-12" value="&lt;div&gt;+ Id&lt;/div&gt;&lt;div&gt;+ RequestPerMinute&lt;/div&gt;&lt;div&gt;+ ShouldRespectRobotsTxt&lt;/div&gt;&lt;div&gt;+ CooldownPeriod&lt;/div&gt;&lt;div&gt;+ AllowedPaths&lt;br&gt;&lt;/div&gt;" style="text;strokeColor=none;fillColor=none;align=left;verticalAlign=top;spacingLeft=4;spacingRight=4;overflow=hidden;rotatable=0;points=[[0,0.5],[1,0.5]];portConstraint=eastwest;whiteSpace=wrap;html=1;" vertex="1" parent="nX1LnQ5ez04kvzL2XjsZ-11">
          <mxGeometry y="26" width="180" height="84" as="geometry" />
        </mxCell>
        <mxCell id="nX1LnQ5ez04kvzL2XjsZ-22" style="edgeStyle=orthogonalEdgeStyle;rounded=0;orthogonalLoop=1;jettySize=auto;html=1;entryX=0.5;entryY=1;entryDx=0;entryDy=0;endArrow=none;endFill=0;" edge="1" parent="1" source="nX1LnQ5ez04kvzL2XjsZ-17" target="nX1LnQ5ez04kvzL2XjsZ-1">
          <mxGeometry relative="1" as="geometry" />
        </mxCell>
        <mxCell id="nX1LnQ5ez04kvzL2XjsZ-23" value="1" style="edgeLabel;html=1;align=center;verticalAlign=middle;resizable=0;points=[];" vertex="1" connectable="0" parent="nX1LnQ5ez04kvzL2XjsZ-22">
          <mxGeometry x="-0.7455" y="1" relative="1" as="geometry">
            <mxPoint as="offset" />
          </mxGeometry>
        </mxCell>
        <mxCell id="nX1LnQ5ez04kvzL2XjsZ-24" value="0..*" style="edgeLabel;html=1;align=center;verticalAlign=middle;resizable=0;points=[];" vertex="1" connectable="0" parent="nX1LnQ5ez04kvzL2XjsZ-22">
          <mxGeometry x="0.7455" y="2" relative="1" as="geometry">
            <mxPoint as="offset" />
          </mxGeometry>
        </mxCell>
        <mxCell id="nX1LnQ5ez04kvzL2XjsZ-17" value="City" style="swimlane;fontStyle=0;childLayout=stackLayout;horizontal=1;startSize=26;fillColor=none;horizontalStack=0;resizeParent=1;resizeParentMax=0;resizeLast=0;collapsible=1;marginBottom=0;whiteSpace=wrap;html=1;" vertex="1" parent="1">
          <mxGeometry x="320" y="400" width="120" height="110" as="geometry" />
        </mxCell>
        <mxCell id="nX1LnQ5ez04kvzL2XjsZ-18" value="&lt;div&gt;+ Id &lt;br&gt;&lt;/div&gt;&lt;div&gt;+ Region&lt;/div&gt;&lt;div&gt;+ Country&lt;/div&gt;&lt;div&gt;+ Name&lt;/div&gt;&lt;div&gt;+ Zip&lt;/div&gt;" style="text;strokeColor=none;fillColor=none;align=left;verticalAlign=top;spacingLeft=4;spacingRight=4;overflow=hidden;rotatable=0;points=[[0,0.5],[1,0.5]];portConstraint=eastwest;whiteSpace=wrap;html=1;" vertex="1" parent="nX1LnQ5ez04kvzL2XjsZ-17">
          <mxGeometry y="26" width="120" height="84" as="geometry" />
        </mxCell>
        <mxCell id="nX1LnQ5ez04kvzL2XjsZ-28" value="ScrapingError" style="swimlane;fontStyle=0;childLayout=stackLayout;horizontal=1;startSize=26;fillColor=none;horizontalStack=0;resizeParent=1;resizeParentMax=0;resizeLast=0;collapsible=1;marginBottom=0;whiteSpace=wrap;html=1;" vertex="1" parent="1">
          <mxGeometry x="610" y="-100" width="120" height="120" as="geometry" />
        </mxCell>
        <mxCell id="nX1LnQ5ez04kvzL2XjsZ-29" value="&lt;div&gt;+ Id&lt;/div&gt;&lt;div&gt;+ Timestamp&lt;/div&gt;&lt;div&gt;+ Message&lt;/div&gt;&lt;div&gt;+ StackTrace&lt;/div&gt;&lt;div&gt;+ RetryCount&lt;br&gt;&lt;/div&gt;&lt;div&gt;+ ErrorType&lt;br&gt;&lt;/div&gt;" style="text;strokeColor=none;fillColor=none;align=left;verticalAlign=top;spacingLeft=4;spacingRight=4;overflow=hidden;rotatable=0;points=[[0,0.5],[1,0.5]];portConstraint=eastwest;whiteSpace=wrap;html=1;" vertex="1" parent="nX1LnQ5ez04kvzL2XjsZ-28">
          <mxGeometry y="26" width="120" height="94" as="geometry" />
        </mxCell>
      </root>
    </mxGraphModel>
  </diagram>
</mxfile>
